<?xml version="1.0" encoding="UTF-8"?>
<svg id="Camada_1" xmlns="http://www.w3.org/2000/svg" version="1.1" viewBox="0 0 99.61 82.83">
  <!-- Generator: Adobe Illustrator 29.8.1, SVG Export Plug-In . SVG Version: 2.1.1 Build 2)  -->
  <defs>
    <style>
      .st0 {
        fill: #06b6d4;
      }

      .st1 {
        fill: #fff;
      }
    </style>
  </defs>
  <path class="st1" d="M15.63,39.31c-5.25-3.18-8.68-8.7-8.68-14.84,0-10.15,8.89-17.58,21.07-17.58h31.02v68.69h-31.66c-12.68,0-22.28-8.43-22.28-19.56,0-7.5,4.06-13.64,10.53-16.71h0ZM24.91,27.61c0,3.56,2.44,5.98,6.4,5.98h9.56s0-11.96,0-11.96h-9.56c-3.96,0-6.4,2.42-6.4,5.98ZM30.59,60.05h10.28s0-12.49,0-12.49h-10.28c-4.1,0-6.78,2.57-6.78,6.22s2.68,6.27,6.78,6.27Z"/>
  <path class="st0" d="M84.47,39.31c6.47,3.07,10.53,9.21,10.53,16.71,0,11.13-9.61,19.56-22.28,19.56h-31.66V6.9h31.02c12.18,0,21.07,7.43,21.07,17.58,0,6.14-3.44,11.66-8.68,14.84h0ZM68.8,21.63h-9.56v11.96h9.56c3.96,0,6.4-2.42,6.4-5.98s-2.44-5.98-6.4-5.98ZM76.29,53.78c0-3.65-2.68-6.22-6.78-6.22h-10.28v12.49h10.28c4.1,0,6.78-2.57,6.78-6.27Z"/>
</svg>