<?xml version="1.0" encoding="UTF-8"?>
<svg id="Camada_1" xmlns="http://www.w3.org/2000/svg" version="1.1" viewBox="0 0 519.16 142.92">
  <!-- Generator: Adobe Illustrator 29.8.1, SVG Export Plug-In . SVG Version: 2.1.1 Build 2)  -->
  <defs>
    <style>
      .st0 {
        fill: #06b6d4;
      }

      .st1 {
        fill: #fff;
      }
    </style>
  </defs>
  <g>
    <path class="st1" d="M179.65,73.05c4.37,2.07,7.11,6.22,7.11,11.28,0,7.51-6.48,13.2-15.04,13.2h-21.37v-46.36h20.94c8.22,0,14.22,5.02,14.22,11.87,0,4.14-2.32,7.87-5.86,10.02h0ZM169.07,61.12h-6.45v8.07h6.46c2.67,0,4.32-1.63,4.32-4.04s-1.65-4.04-4.32-4.04ZM174.13,82.81c0-2.46-1.81-4.2-4.57-4.2h-6.94v8.43h6.94c2.77,0,4.57-1.73,4.57-4.23Z"/>
    <path class="st1" d="M230.12,61.77l-14.99,34.17c-4.82,10.95-9.25,14.9-18.49,14.9h-4.22v-10.59h3.39c4.71,0,6.13-1.23,7.8-5.68l-14.78-32.81h13.39l7.59,19.7,7.07-19.7h13.23Z"/>
    <path class="st1" d="M257.25,86.74v10.79h-8.48c-7.91,0-12.72-4.83-12.72-12.78v-13.49h-6.55v-2.88l16.02-17.06h2.53v10.46h8.98v9.49h-8.67v11.38c0,2.56,1.55,4.11,4.14,4.11h4.73Z"/>
    <path class="st1" d="M299.27,82.57h-26.56c.81,4.1,3.41,6.22,7.3,6.22,2.88,0,5.28-1.26,6.47-3.36h12.26c-2.52,8.16-9.75,13.26-18.73,13.26-11.16,0-19.43-8.16-19.43-19.08s8.2-19.03,19.43-19.03,19.51,8.22,19.51,18.72c0,1.08-.1,2.15-.25,3.26ZM272.93,75.75h14.46c-1.08-3.58-3.66-5.5-7.37-5.5s-6.09,1.95-7.08,5.5Z"/>
    <path class="st0" d="M334.51,73.05c4.37,2.07,7.11,6.22,7.11,11.28,0,7.51-6.48,13.2-15.04,13.2h-21.37v-46.36h20.94c8.22,0,14.22,5.02,14.22,11.87,0,4.14-2.32,7.87-5.86,10.02h0ZM323.92,61.12h-6.45v8.07h6.46c2.67,0,4.32-1.63,4.32-4.04s-1.65-4.04-4.32-4.04ZM328.98,82.81c0-2.46-1.81-4.2-4.57-4.2h-6.94v8.43h6.94c2.77,0,4.57-1.73,4.57-4.23Z"/>
    <path class="st0" d="M385.78,61.73v35.76h-9.52l-1.06-2.53c-2.93,2.37-6.64,3.74-10.79,3.74-10.94,0-18.75-7.98-18.75-19.09s7.82-18.96,18.75-18.96c4.21,0,7.97,1.41,10.93,3.84l1.26-2.77h9.18ZM374.07,79.64c0-4.64-3.39-8.13-8.01-8.13s-8.01,3.49-8.01,8.13,3.39,8.16,8.01,8.16,8.01-3.49,8.01-8.16Z"/>
    <path class="st0" d="M428.9,75.72v21.81h-12.32v-20.11c0-4.16-1.56-6.23-4.66-6.23-3.84,0-6.05,2.68-6.05,7.24v19.1h-12.32v-35.76h8.64l1.69,3.69c2.66-2.97,6.63-4.75,11.26-4.75,8.31,0,13.76,5.9,13.76,15.01Z"/>
    <path class="st0" d="M458.08,97.53l-8.96-15.12v15.12h-12.32v-48.68h12.32v26.93l8.52-14.01h13.83l-11.15,17.04,12.27,18.72h-14.52Z"/>
  </g>
  <path class="st1" d="M50.2,73.13c-5.25-3.18-8.68-8.7-8.68-14.84,0-10.15,8.89-17.58,21.07-17.58h31.02v68.69h-31.66c-12.68,0-22.28-8.43-22.28-19.56,0-7.5,4.06-13.64,10.53-16.71h0ZM59.47,61.43c0,3.56,2.44,5.98,6.4,5.98h9.56s0-11.96,0-11.96h-9.56c-3.96,0-6.4,2.42-6.4,5.98ZM65.16,93.87h10.28s0-12.49,0-12.49h-10.28c-4.1,0-6.78,2.57-6.78,6.22s2.68,6.27,6.78,6.27Z"/>
  <path class="st0" d="M119.04,73.13c6.47,3.07,10.53,9.21,10.53,16.71,0,11.13-9.61,19.56-22.28,19.56h-31.66V40.72h31.02c12.18,0,21.07,7.43,21.07,17.58,0,6.14-3.44,11.66-8.68,14.84h0ZM103.36,55.45h-9.56v11.96h9.56c3.96,0,6.4-2.42,6.4-5.98s-2.44-5.98-6.4-5.98ZM110.85,87.6c0-3.65-2.68-6.22-6.78-6.22h-10.28v12.49h10.28c4.1,0,6.78-2.57,6.78-6.27Z"/>
</svg>